# xmcd
#
# Track frame offsets: 
#        150
#        19866
#        47882
#        73523
#        88038
#        111372
#        124449
#        145016
#        181698
#        213891
#        237384
#        268449
#        286631
#
# Disc length: 4712 seconds
#
# Revision: 0
# Processed by: cddbd v1.4PL0 Copyright (c) Steve Scherf et al.
# Submitted via: ExactAudioCopy v0.90b4
#
DISCID=c112660d
DTITLE=Van Morrison - Waterfront digital and analog edition
DYEAR=1997
DGENRE=Celtic
TTITLE0=Ain't That Lovin' You Baby
TTITLE1=Vanlose Stairway
TTITLE2=Rough God Goes Riding
TTITLE3=Into The Mystic
TTITLE4=Sometimes We Cry
TTITLE5=Enlightenment
TTITLE6=The Waiting Game
TTITLE7=Tupelo Honey > Why Must I Always Explain ?
TTITLE8=The Healing Game
TTITLE9=It Once Was My Life
TTITLE10=Summertime In England
TTITLE11=If You Love Me
TTITLE12=See Me Through > Soldier Of Fortune > Thank You (Falletinme B
TTITLE12=e Mice Elf Agin) > Burning Ground
EXTD=
EXTT0=
EXTT1=
EXTT2=
EXTT3=
EXTT4=
EXTT5=
EXTT6=
EXTT7=
EXTT8=
EXTT9=
EXTT10=
EXTT11=
EXTT12=
PLAYORDER=
